<svg width="64" height="64" viewBox="0 0 64 64" fill="none" xmlns="http://www.w3.org/2000/svg">
<path d="M50.4 54.1333L35.4667 39.2C34.1333 40.2667 32.6 41.1111 30.8667 41.7333C29.1333 42.3556 27.2889 42.6667 25.3333 42.6667C20.4889 42.6667 16.3893 40.9884 13.0347 37.632C9.68 34.2756 8.00178 30.176 8 25.3333C8 20.4889 9.67822 16.3893 13.0347 13.0347C16.3911 9.68 20.4907 8.00178 25.3333 8C30.1778 8 34.2773 9.67822 37.632 13.0347C40.9867 16.3911 42.6649 20.4907 42.6667 25.3333C42.6667 27.2889 42.3556 29.1333 41.7333 30.8667C41.1111 32.6 40.2667 34.1333 39.2 35.4667L54.2 50.4667C54.6889 50.9556 54.9333 51.5556 54.9333 52.2667C54.9333 52.9778 54.6667 53.6 54.1333 54.1333C53.6444 54.6222 53.0222 54.8667 52.2667 54.8667C51.5111 54.8667 50.8889 54.6222 50.4 54.1333ZM25.3333 37.3333C28.6667 37.3333 31.5004 36.1662 33.8347 33.832C36.1689 31.4978 37.3351 28.6649 37.3333 25.3333C37.3333 22 36.1662 19.1662 33.832 16.832C31.4978 14.4978 28.6649 13.3316 25.3333 13.3333C22 13.3333 19.1662 14.5004 16.832 16.8347C14.4978 19.1689 13.3316 22.0018 13.3333 25.3333C13.3333 28.6667 14.5004 31.5004 16.8347 33.8347C19.1689 36.1689 22.0018 37.3351 25.3333 37.3333Z" fill="black"/>
</svg>
