<svg width="64" height="64" viewBox="0 0 64 64" fill="none" xmlns="http://www.w3.org/2000/svg">
<path d="M48 34.6615H34.6667V47.9948C34.6667 48.702 34.3858 49.3803 33.8857 49.8804C33.3856 50.3805 32.7073 50.6615 32 50.6615C31.2928 50.6615 30.6145 50.3805 30.1144 49.8804C29.6143 49.3803 29.3334 48.702 29.3334 47.9948V34.6615H16C15.2928 34.6615 14.6145 34.3805 14.1144 33.8804C13.6143 33.3803 13.3334 32.702 13.3334 31.9948C13.3334 31.2875 13.6143 30.6093 14.1144 30.1092C14.6145 29.6091 15.2928 29.3281 16 29.3281H29.3334V15.9948C29.3334 15.2875 29.6143 14.6093 30.1144 14.1092C30.6145 13.6091 31.2928 13.3281 32 13.3281C32.7073 13.3281 33.3856 13.6091 33.8857 14.1092C34.3858 14.6093 34.6667 15.2875 34.6667 15.9948V29.3281H48C48.7073 29.3281 49.3856 29.6091 49.8857 30.1092C50.3858 30.6093 50.6667 31.2875 50.6667 31.9948C50.6667 32.702 50.3858 33.3803 49.8857 33.8804C49.3856 34.3805 48.7073 34.6615 48 34.6615Z" fill="black"/>
</svg>
