<svg width="64" height="64" viewBox="0 0 64 64" fill="none" xmlns="http://www.w3.org/2000/svg">
<path d="M40.3333 56.2667L17.8667 33.8667C17.6 33.6001 17.4107 33.3112 17.2987 33.0001C17.1867 32.689 17.1316 32.3556 17.1333 32.0001C17.1333 31.6445 17.1885 31.3112 17.2987 31.0001C17.4089 30.689 17.5982 30.4001 17.8667 30.1334L40.3333 7.66673C40.9556 7.04451 41.7333 6.7334 42.6667 6.7334C43.6 6.7334 44.4 7.06673 45.0667 7.7334C45.7333 8.40007 46.0667 9.17784 46.0667 10.0667C46.0667 10.9556 45.7333 11.7334 45.0667 12.4001L25.4667 32.0001L45.0667 51.6001C45.6889 52.2223 46 52.9894 46 53.9014C46 54.8134 45.6667 55.6018 45 56.2667C44.3333 56.9334 43.5556 57.2667 42.6667 57.2667C41.7778 57.2667 41 56.9334 40.3333 56.2667Z" fill="black"/>
</svg>
