<svg width="64" height="63" viewBox="0 0 64 63" fill="none" xmlns="http://www.w3.org/2000/svg">
<path d="M18.6667 46.8667L32 41.1333L45.3334 46.8667V12.3333H18.6667V46.8667ZM17.0667 53.4C16.1778 53.7556 15.3334 53.6773 14.5334 53.1653C13.7334 52.6533 13.3334 51.9102 13.3334 50.936V12.3333C13.3334 10.8667 13.856 9.61067 14.9014 8.56534C15.9467 7.52 17.2018 6.99823 18.6667 7H45.3334C46.8 7 48.056 7.52267 49.1014 8.568C50.1467 9.61334 50.6685 10.8684 50.6667 12.3333V50.9333C50.6667 51.9111 50.2667 52.656 49.4667 53.168C48.6667 53.68 47.8223 53.7573 46.9334 53.4L32 47L17.0667 53.4Z" fill="black"/>
</svg>
